<svg width="34" height="34" viewBox="0 0 34 34" fill="none" xmlns="http://www.w3.org/2000/svg">
<path fill-rule="evenodd" clip-rule="evenodd" d="M29.6045 14.5H27.542V19.6562C26.6128 18.9593 25.4754 18.5966 24.3143 18.6267C23.1531 18.6569 22.0362 19.0783 21.1444 19.8225C20.2526 20.5668 19.6383 21.5903 19.4008 22.7274C19.1634 23.8644 19.3169 25.0483 19.8364 26.0872C20.3558 27.1261 21.2108 27.9592 22.2629 28.4515C23.315 28.9438 24.5024 29.0664 25.6329 28.7996C26.7634 28.5327 27.7706 27.8919 28.4915 26.9811C29.2123 26.0703 29.6045 24.9428 29.6045 23.7812V14.5ZM24.4482 20.6875C25.2688 20.6875 26.0557 21.0134 26.6359 21.5936C27.2161 22.1738 27.542 22.9607 27.542 23.7812C27.542 24.6018 27.2161 25.3887 26.6359 25.9689C26.0557 26.5491 25.2688 26.875 24.4482 26.875C23.6277 26.875 22.8408 26.5491 22.2606 25.9689C21.6804 25.3887 21.3545 24.6018 21.3545 23.7812C21.3545 22.9607 21.6804 22.1738 22.2606 21.5936C22.8408 21.0134 23.6277 20.6875 24.4482 20.6875Z" fill="black"/>
<path fill-rule="evenodd" clip-rule="evenodd" d="M28.5093 4.18945L12.0093 5.2207L11.042 6.24989V21.7186C10.1128 21.0217 8.97543 20.659 7.81428 20.6891C6.65312 20.7193 5.53617 21.1407 4.64439 21.8849C3.75262 22.6292 3.13825 23.6527 2.90085 24.7898C2.66344 25.9268 2.8169 27.1107 3.33636 28.1496C3.85582 29.1885 4.71084 30.0216 5.76291 30.5139C6.81497 31.0062 8.00244 31.1288 9.13291 30.862C10.2634 30.5951 11.2706 29.9543 11.9915 29.0435C12.7123 28.1327 13.1045 27.0052 13.1045 25.8436V13.4068L27.542 12.5034V14.4999H29.6045V5.21864L28.5093 4.18945ZM27.542 6.31589V10.4368L13.1045 11.3401V7.21927L27.542 6.31589ZM7.94825 22.7499C8.35452 22.7499 8.75682 22.8299 9.13217 22.9854C9.50753 23.1409 9.84858 23.3687 10.1359 23.656C10.4231 23.9433 10.651 24.2844 10.8065 24.6597C10.962 25.0351 11.042 25.4374 11.042 25.8436C11.042 26.2499 10.962 26.6522 10.8065 27.0276C10.651 27.4029 10.4231 27.744 10.1359 28.0313C9.84858 28.3185 9.50753 28.5464 9.13217 28.7019C8.75682 28.8574 8.35452 28.9374 7.94825 28.9374C7.12773 28.9374 6.34083 28.6114 5.76064 28.0313C5.18045 27.4511 4.8545 26.6642 4.8545 25.8436C4.8545 25.0231 5.18045 24.2362 5.76064 23.656C6.34083 23.0758 7.12773 22.7499 7.94825 22.7499Z" fill="black"/>
</svg>
