<?xml version="1.0" encoding="UTF-8"?><svg id="_레이어_1" xmlns="http://www.w3.org/2000/svg" xmlns:xlink="http://www.w3.org/1999/xlink" viewBox="0 0 1920 1080"><defs><style>.cls-1,.cls-2,.cls-3,.cls-4,.cls-5,.cls-6,.cls-7,.cls-8,.cls-9,.cls-10,.cls-11,.cls-12,.cls-13,.cls-14,.cls-15,.cls-16,.cls-17,.cls-18,.cls-19,.cls-20,.cls-21,.cls-22,.cls-23,.cls-24,.cls-25,.cls-26,.cls-27,.cls-28,.cls-29,.cls-30,.cls-31,.cls-32{stroke-width:0px;}.cls-1,.cls-12{fill:#5d7554;}.cls-2{fill:url(#_무제_그라디언트_35-7);}.cls-3{fill:url(#_무제_그라디언트_41-15);}.cls-4{fill:url(#_무제_그라디언트_35);}.cls-5{fill:url(#_무제_그라디언트_41-10);}.cls-33{stroke:#fff;}.cls-33,.cls-34{fill:none;stroke-miterlimit:10;}.cls-35,.cls-12{opacity:.9;}.cls-6{fill:url(#_무제_그라디언트_41-13);}.cls-7{fill:url(#_무제_그라디언트_41-5);}.cls-8{fill:url(#_무제_그라디언트_39);}.cls-9{fill:url(#_무제_그라디언트_35-2);}.cls-10{fill:url(#_무제_그라디언트_35-4);}.cls-11{fill:url(#_무제_그라디언트_41-4);}.cls-13{fill:url(#_무제_그라디언트_36-2);}.cls-14{fill:url(#_무제_그라디언트_41-9);}.cls-15{fill:#ffecde;}.cls-16{fill:url(#_무제_그라디언트_36);}.cls-17{fill:url(#_무제_그라디언트_35-8);}.cls-18{fill:url(#_무제_그라디언트_39-3);}.cls-19{fill:url(#_무제_그라디언트_41);}.cls-20{fill:url(#_무제_그라디언트_39-2);}.cls-21{fill:url(#_무제_그라디언트_35-5);}.cls-22{fill:url(#_무제_그라디언트_41-6);}.cls-23{fill:url(#_무제_그라디언트_35-6);}.cls-24{fill:url(#_무제_그라디언트_41-12);}.cls-25{fill:url(#_무제_그라디언트_41-16);}.cls-34{stroke:#ffecde;}.cls-26{fill:url(#_무제_그라디언트_41-14);}.cls-27{fill:url(#_무제_그라디언트_41-11);}.cls-28{fill:url(#_무제_그라디언트_41-8);}.cls-29{fill:url(#_무제_그라디언트_41-7);}.cls-30{fill:url(#_무제_그라디언트_41-3);}.cls-31{fill:url(#_무제_그라디언트_35-3);}.cls-32{fill:url(#_무제_그라디언트_41-2);}</style><linearGradient id="_무제_그라디언트_35" x1="1731.6" y1="903.86" x2="1731.6" y2="821.38" gradientTransform="translate(167.28 -252.95) rotate(8.66)" gradientUnits="userSpaceOnUse"><stop offset="0" stop-color="#ffece1"/><stop offset=".54" stop-color="#ffc2e1"/><stop offset="1" stop-color="#eaa7d9"/></linearGradient><linearGradient id="_무제_그라디언트_35-2" x1="1785.24" y1="884.41" x2="1785.24" y2="836.09" xlink:href="#_무제_그라디언트_35"/><linearGradient id="_무제_그라디언트_35-3" x1="1795.08" y1="913.54" x2="1724" y2="913.54" gradientTransform="translate(3640.09 -106.56) rotate(176.81) scale(1.08 -1)" xlink:href="#_무제_그라디언트_35"/><linearGradient id="_무제_그라디언트_35-4" x1="1775.49" y1="952.18" x2="1803.41" y2="918.3" gradientTransform="translate(422.73 -543.01) rotate(20.07)" xlink:href="#_무제_그라디언트_35"/><linearGradient id="_무제_그라디언트_35-5" x1="1723" y1="937.64" x2="1682.36" y2="937.64" xlink:href="#_무제_그라디언트_35"/><linearGradient id="_무제_그라디언트_35-6" x1="1675.4" y1="2884.75" x2="1675.4" y2="2792.26" gradientTransform="translate(295 -1091.77) rotate(8.66) scale(1 .6)" xlink:href="#_무제_그라디언트_35"/><linearGradient id="_무제_그라디언트_35-7" x1="1707.13" y1="897.23" x2="1609.72" y2="897.23" xlink:href="#_무제_그라디언트_35"/><linearGradient id="_무제_그라디언트_35-8" x1="1683.76" y1="949.64" x2="1610.45" y2="949.64" xlink:href="#_무제_그라디언트_35"/><linearGradient id="_무제_그라디언트_41" x1="653.61" y1="1019.02" x2="653.61" y2="933.76" gradientTransform="translate(1042.58 -252.95) rotate(173.05) scale(1.24 -1) skewX(-3.08)" gradientUnits="userSpaceOnUse"><stop offset="0" stop-color="#ffece1"/><stop offset=".54" stop-color="#ffc2e1"/><stop offset="1" stop-color="#f487dd"/></linearGradient><linearGradient id="_무제_그라디언트_41-2" x1="707.35" y1="999.13" x2="707.35" y2="949.36" xlink:href="#_무제_그라디언트_41"/><linearGradient id="_무제_그라디언트_41-3" x1="2791.31" y1="805.4" x2="2720.24" y2="805.4" gradientTransform="translate(-3294.06 -106.56) rotate(2.56) scale(1.35 1) skewX(-1.06)" xlink:href="#_무제_그라디언트_41"/><linearGradient id="_무제_그라디언트_41-4" x1="742.36" y1="1280.11" x2="770.36" y2="1246.15" gradientTransform="translate(723.59 -543.01) rotate(163.69) scale(1.22 -1.02) skewX(-6.88)" xlink:href="#_무제_그라디언트_41"/><linearGradient id="_무제_그라디언트_41-5" x1="645.35" y1="1053.91" x2="604.8" y2="1053.91" xlink:href="#_무제_그라디언트_41"/><linearGradient id="_무제_그라디언트_41-6" x1="597.35" y1="3075.17" x2="597.35" y2="2979.19" gradientTransform="translate(883.09 -1091.77) rotate(173.05) scale(1.24 -.6) skewX(-1.85)" xlink:href="#_무제_그라디언트_41"/><linearGradient id="_무제_그라디언트_41-7" x1="629.37" y1="1011.82" x2="531.78" y2="1011.82" xlink:href="#_무제_그라디언트_41"/><linearGradient id="_무제_그라디언트_41-8" x1="606.09" y1="1066" x2="532.99" y2="1066" xlink:href="#_무제_그라디언트_41"/><linearGradient id="_무제_그라디언트_41-9" x1="1384.07" y1="779.71" x2="1384.07" y2="647.88" gradientTransform="matrix(1,0,0,1,0,0)" xlink:href="#_무제_그라디언트_41"/><linearGradient id="_무제_그라디언트_41-10" x1="1469.82" y1="748.62" x2="1469.82" y2="671.39" gradientTransform="matrix(1,0,0,1,0,0)" xlink:href="#_무제_그라디언트_41"/><linearGradient id="_무제_그라디언트_41-11" x1="2081.9" y1="728.37" x2="1968.3" y2="728.37" gradientTransform="translate(3455.27 -378.03) rotate(168.15) scale(1.08 -1)" xlink:href="#_무제_그라디언트_41"/><linearGradient id="_무제_그라디언트_41-12" x1="1433.97" y1="928.49" x2="1478.61" y2="874.34" gradientTransform="translate(208.88 -325.2) rotate(11.42)" xlink:href="#_무제_그라디언트_41"/><linearGradient id="_무제_그라디언트_41-13" x1="1294.25" y1="2658.1" x2="1294.25" y2="2510.28" gradientTransform="translate(0 -848.49) scale(1 .6)" xlink:href="#_무제_그라디언트_41"/><linearGradient id="_무제_그라디언트_41-14" x1="1344.96" y1="769.12" x2="1189.26" y2="769.12" gradientTransform="matrix(1,0,0,1,0,0)" xlink:href="#_무제_그라디언트_41"/><linearGradient id="_무제_그라디언트_41-15" x1="1307.61" y1="852.88" x2="1190.43" y2="852.88" gradientTransform="matrix(1,0,0,1,0,0)" xlink:href="#_무제_그라디언트_41"/><linearGradient id="_무제_그라디언트_41-16" x1="1371.45" y1="838.19" x2="1306.5" y2="838.19" gradientTransform="matrix(1,0,0,1,0,0)" xlink:href="#_무제_그라디언트_41"/><linearGradient id="_무제_그라디언트_39" x1="647.14" y1="1020.83" x2="647.14" y2="935.35" gradientTransform="translate(-65.96 49.31) rotate(-3.55)" gradientUnits="userSpaceOnUse"><stop offset="0" stop-color="#9cae86"/><stop offset=".54" stop-color="#59a585"/><stop offset="1" stop-color="#4c9276"/></linearGradient><linearGradient id="_무제_그라디언트_36" x1="1439.16" y1="976.91" x2="1626.1" y2="976.91" gradientTransform="translate(-56.26 98.77) rotate(-3.52)" gradientUnits="userSpaceOnUse"><stop offset="0" stop-color="#98ceae"/><stop offset="1" stop-color="#4c9276"/></linearGradient><linearGradient id="_무제_그라디언트_39-2" x1="1531.49" y1="1026.57" x2="1531.49" y2="967.69" gradientTransform="translate(-56.26 98.77) rotate(-3.52)" xlink:href="#_무제_그라디언트_39"/><linearGradient id="_무제_그라디언트_36-2" x1="272.2" y1="1029.93" x2="97.34" y2="1029.93" gradientTransform="translate(28.7 99.26) scale(1.03 .86)" xlink:href="#_무제_그라디언트_36"/><linearGradient id="_무제_그라디언트_39-3" x1="185.82" y1="1074.4" x2="185.82" y2="1013.95" gradientTransform="translate(28.7 99.26) scale(1.03 .86)" xlink:href="#_무제_그라디언트_39"/></defs><rect class="cls-15" width="1920" height="1080"/><path class="cls-1" d="m1541,1027s5.02,13.1,5.94,25.75c.92,12.65-8.42,36.25-8.42,36.25h-3.36s8.24-30.52,8.18-34.25-6.33-27.75-6.33-27.75h4Z"/><path class="cls-12" d="m665.98,1025.86s-4.33,17.52-2.91,33.14c1.42,15.61,2.95,23.01,2.95,23.01l3.4-.06s-2.31-19.44-2.93-24.01c-.62-4.57,3.24-32.76,3.24-32.76l-3.75.69Z"/><path class="cls-1" d="m1702.08,1090.74s37.14-70.87,38.26-96.91c1.13-26.04-.61-72.51-.61-72.51l4.57-1.99s4.15,62.27,1.83,77.51c-2.32,15.23-37.25,94.94-37.25,94.94l-6.8-1.04Z"/><path class="cls-4" d="m1730.06,899.28s-35.38-57.73,23.61-79.83c0,0,36.28,8.8,24.78,41.4-11.51,32.6-45.8,38.83-45.8,38.83"/><path class="cls-9" d="m1778.46,886.97s-3.9-25.01,24.39-33.56c28.29-8.54,21.82-8.24,21.82-8.24,0,0,4.62,25.12-6.97,35.57-11.6,10.44-39.23,6.24-39.23,6.24Z"/><path class="cls-31" d="m1827.5,908.76s-13.41-21.97-43.42-13.87c-30.01,8.11-33.75,11.94-33.75,11.94,0,0,22.24,27.5,44.78,22.02,22.54-5.48,27.51-8.69,30.11-11.59,2.59-2.9,2.28-8.51,2.28-8.51Z"/><path class="cls-10" d="m1749.82,921.45s17.13,13.59,36.81,12.34c19.67-1.25,33.16,40.31,30.73,42.61s-24.29,5.46-43.83-6.46c-19.54-11.92-23.7-48.48-23.7-48.48Z"/><path class="cls-21" d="m1732.16,907.16s-44.06,16.36-44.01,28.29c.05,11.93,13.62,32.15,30.31,12,16.69-20.16,13.7-40.29,13.7-40.29Z"/><path class="cls-23" d="m1712.77,876.97s-29.93-13.64-33.14-32.29c-3.21-18.65-1.54-39.58-1.54-39.58,0,0,33.02,21.67,34.18,33.96,1.16,12.28.51,37.91.51,37.91Z"/><path class="cls-2" d="m1718.9,897.58s-13.08-26.2-40.73-33.44c-27.65-7.24-52.64-.45-52.64-.45,0,0,8.55,36.08,43.08,40.59,34.54,4.52,50.29-6.7,50.29-6.7Z"/><path class="cls-17" d="m1692.87,913.29s-34.6-11.32-54.47,9.87c-19.87,21.19-25.89,30.87-25.89,30.87,0,0,33.34,9.62,49.71,1.52,16.37-8.1,18.75-13.79,18.75-13.79,0,0-.49-15.21,3.78-19.1,4.26-3.89,8.12-9.36,8.12-9.36Z"/><path class="cls-1" d="m471.1,1097.07s-43.62-92.1-43.91-126.65c-.29-34.55,3.9-96.4,3.9-96.4l-5.65-2.39s-7.91,82.99-5.65,103.1c2.26,20.12,42.72,124.08,42.72,124.08l8.6-1.76Z"/><path class="cls-19" d="m443.21,850.88s44.18-59.76-29.48-82.63c0,0-45.31,9.1-30.94,42.85,14.37,33.74,57.19,40.19,57.19,40.19"/><path class="cls-32" d="m382.78,838.14s4.87-25.89-30.45-34.73c-35.33-8.84-27.25-8.53-27.25-8.53,0,0-5.77,26,8.71,36.81,14.48,10.81,48.99,6.45,48.99,6.45Z"/><path class="cls-30" d="m321.53,860.7s16.74-22.74,54.22-14.35c37.47,8.39,42.14,12.36,42.14,12.36,0,0-27.77,28.46-55.91,22.79-28.15-5.67-34.36-8.99-37.6-11.99-3.24-3-2.85-8.81-2.85-8.81Z"/><path class="cls-11" d="m418.53,873.83s-21.39,14.07-45.96,12.77c-24.57-1.3-41.41,41.72-38.37,44.1,3.04,2.38,30.34,5.65,54.74-6.69,24.4-12.34,29.59-50.18,29.59-50.18Z"/><path class="cls-7" d="m440.6,859.04s55.02,16.94,54.96,29.28c-.06,12.35-17.01,33.28-37.85,12.42-20.84-20.87-17.11-41.7-17.11-41.7Z"/><path class="cls-22" d="m464.81,827.79s37.37-14.12,41.39-33.42c4.01-19.3,1.92-40.97,1.92-40.97,0,0-41.23,22.43-42.68,35.15-1.44,12.71-.63,39.24-.63,39.24Z"/><path class="cls-29" d="m457.15,849.12s16.33-27.12,50.86-34.61c34.53-7.49,65.74-.46,65.74-.46,0,0-10.67,37.34-53.8,42.02-43.13,4.68-62.79-6.94-62.79-6.94Z"/><path class="cls-28" d="m489.65,865.38s43.2-11.72,68.02,10.21c24.82,21.93,32.33,31.95,32.33,31.95,0,0-41.64,9.95-62.07,1.57-20.44-8.39-23.41-14.28-23.41-14.28,0,0,.61-15.74-4.72-19.77-5.32-4.03-10.14-9.68-10.14-9.68Z"/><path class="cls-1" d="m1364.85,1089s41.64-120.92,37.15-162.34c-4.49-41.42-18.4-114.44-18.4-114.44l6.74-4.24s21.54,97.4,21.54,122.04-36.02,158.98-36.02,158.98h-11Z"/><path class="cls-14" d="m1363,779.71s-69.79-82.72,18.09-131.83c0,0,59.45,5.17,49.11,59.45-10.34,54.28-63.03,72.38-63.03,72.38"/><path class="cls-5" d="m1436.51,748.62s-12.19-38.59,30.46-58.9c42.65-20.31,32.49-18.28,32.49-18.28,0,0,13.35,38.59-2.46,57.88-15.82,19.29-60.5,19.29-60.5,19.29Z"/><path class="cls-27" d="m1519.26,771.26s-26.48-31.5-71.94-11.46c-45.47,20.03-50.45,26.98-50.45,26.98,0,0,41.75,38.1,76.05,24.03,34.3-14.08,41.39-20.35,44.79-25.55,3.4-5.2,1.56-13.99,1.56-13.99Z"/><path class="cls-24" d="m1399.56,810s30.34,17.35,61.13,10.64c30.79-6.72,62.09,55.72,58.8,59.93s-37.08,14.47-70.82.34c-33.74-14.13-49.11-70.91-49.11-70.91Z"/><path class="cls-6" d="m1330.3,748.62s-50.58-14.35-60.14-43.04c-9.57-28.7-11.96-62.18-11.96-62.18,0,0,57.39,26.31,62.18,45.44,4.78,19.13,9.92,59.78,9.92,59.78Z"/><path class="cls-26" d="m1344.96,779.71s-26.97-38.26-72.4-43.04c-45.44-4.78-83.29,11.96-83.29,11.96,0,0,22.18,54.95,77.85,53.78s77.85-22.69,77.85-22.69Z"/><path class="cls-3" d="m1307.61,810.8s-57.39-9.57-83.7,28.7c-26.31,38.26-33.48,55-33.48,55,0,0,55,7.17,78.92-9.57,23.91-16.74,26.31-26.31,26.31-26.31,0,0-4.43-23.91,1.37-31.09,5.8-7.17,10.58-16.74,10.58-16.74Z"/><path class="cls-25" d="m1369.33,796.15s-65.69,36.46-62.74,55.3c2.95,18.84,29.26,47.53,50.78,11.66,21.52-35.87,11.96-66.96,11.96-66.96Z"/><g class="cls-35"><path class="cls-8" d="m669.58,1026.42s-36.02-1.48-52.67-10.36c-16.66-8.88-94.38-43.69-87.51-52.79,6.87-9.1,16.05-20.82,19.13-11.1,3.08,9.72,8.78,21.75,17.12,16.28,8.33-5.47,10.34-13.03,18.2-6.09,5.68,5.01,14.03,10.36,21.84,10.42,3.01.02,6.66-1.27,8.91-3.82,8.1-9.17,11.82-19.15,23.08-17.37,11.26,1.78,17.89,20.58,33.78,17.11,11.92-2.6,16.89-12.82,22.71-13.18,6.51-.4,7.15,3.57,8.52,5.66,5.47,8.33,11.36,13.17,18.54,9.01,7.17-4.16,23.8-5.44,25.5,1.88,1.69,7.33,9.25,9.34-3.09,10.1-12.34.77-27.34,8.51-35.6,15.22-8.25,6.71-11.42,15.57-20.99,21.12-9.57,5.55-17.47,7.9-17.47,7.9Z"/><path class="cls-33" d="m529.39,963.28s5.8,11.28,14.03,6.85c8.22-4.43,10.38-5.59,11.64-4.18,1.26,1.41,2.77,3.31,4.87,3.66,2.11.34,4.95-.36,8.56-3.26,3.6-2.9,6.05,3.79,10.5,2.38,4.45-1.41,5.44-5.25,7.51-4.14,2.07,1.1,11.83,10.28,20.83,8.1,9-2.18,11.77-10.2,13.72-10.32,1.95-.12,10.71,2.9,15.16,1.5,4.45-1.41,9.71-8.19,11.21-6.69,0,0,9.8,11.09,15.46,11.57,5.66.48,11.22.36,16.7-3.36,5.48-3.72,5.15-5.36,6.94-4.64,1.79.72,2.76,5.89,8.63,5.52,5.86-.36,5.9-5.29,7.41-4.56,1.51.73,5.39,9.74,12.24,9.92,6.85.18,14.82,2.3,18.61.11,3.79-2.2,8.95-3.5,10.6-3.11s2.99,4.85,3.5,5.81c.51.97,2.88,3.83,2.83,4.94l.09,1.3"/><path class="cls-34" d="m578.99,968.72s18.56,25.82,32.73,32.79c14.16,6.96,55.84,25.04,55.84,25.04,0,0-11.67-13.73-18.21-24.43-6.55-10.71-14.17-38.02-14.17-38.02"/><path class="cls-34" d="m539.98,971.14s78.49,44.33,81.83,45.43c3.34,1.1,45.75,9.98,45.75,9.98"/><path class="cls-34" d="m695.16,966.26s-.25,27.47-3.84,32.92c-3.58,5.45-22.93,27.18-22.93,27.18l-.84.44"/><path class="cls-34" d="m730.94,972.54s-4.2,7.45-9.21,11.03c-5.01,3.58-16.98,10.86-19.38,14.28s-16.32,21.13-18.22,22.3c-1.9,1.17-15.75,6.22-15.75,6.22"/></g><g class="cls-35"><path class="cls-16" d="m1439.6,976.48s12.16-11.83,29.58-15.23c17.42-3.4,32-8.97,34.77-7.97,2.77,1,5.62,3.15,9.6,1.74s18.49-8.14,26.74-6.31,18.14,8.22,23.47,6.72c5.33-1.49,6.47-5.06,20.27-1.25,13.8,3.82,10.86,4.53,19.4,11.01,8.54,6.47,16.73,13.18,19.79,18.82,3.06,5.64,5.29,9.73,4.64,10.21s-60.8,14.67-60.8,14.67l-75.12-6.31-52.32-26.1Z"/><path class="cls-20" d="m1531.49,1026.24s-24.11,4.98-35.63-5.97c-11.52-10.96-40.9-36.56-46.45-38.56-5.55-1.99-16.64-5.98-9.81-5.23,6.83.75,24.39-.33,27.24,1.82,2.85,2.16,25.53,18.26,36.2,15.27,10.67-2.99,26.38-12.12,36.12-8.05,9.74,4.07,20.98,10.38,31.65,7.39,10.67-2.99,13.3-4.32,18.84-2.33,5.55,1.99,10.03,8.72,18.06,7.05s14.65-4.4,17.42-3.4l2.77,1s-29.51,5.31-37.19,12.79c-7.68,7.47-13.86,17.18-21.9,18.84-8.04,1.66-25.67,1.58-28.44.58-2.77-1-8.89-1.2-8.89-1.2Z"/><path class="cls-33" d="m1484.74,989.27c-.26.2,5.93,12.65,17.09,17.8s12.52,5.06,15.43,8.38c2.92,3.32,6.54,7.18,9.32,8.18,2.77,1,5.62,3.15,5.62,3.15"/><path class="cls-33" d="m1513.63,1012.17s-2.48-8.01-3.98-10.25-5.8-8.58-5.8-8.58"/><path class="cls-33" d="m1531.49,1026.24s17.49-2.24,21.4-4.82c3.91-2.57,10.52-5.31,13.08-7.8,2.56-2.49,14.86-23.08,14.86-23.08l.25-.46"/><path class="cls-33" d="m1563.23,1015.63s13.72-6.63,16.09-8.89,12.54-13.38,12.54-13.38l.93-1.19"/><line class="cls-33" x1="1579.32" y1="1006.75" x2="1601.13" y2="997.16"/><path class="cls-33" d="m1551.07,1022.29s-1.51-16.17-1.2-19.52c.31-3.35.83-12.31.83-12.31"/><path class="cls-33" d="m1460.85,977.09s5.63,6.48,9.97,10.88c4.34,4.4,23.33,14.72,23.33,14.72"/></g><path class="cls-12" d="m214,1021s-1.43,13.52.1,29.12c1.53,15.59,13.65,43.3,13.65,43.3l2.82-.42s-12.45-36.32-13.08-40.88.52-31.12.52-31.12h-4Z"/><g class="cls-35"><path class="cls-13" d="m214.62,1019.09s-24.39,1.07-35.95-8.6c-11.55-9.67-52.64-38.7-50.07-44.07,2.57-5.37,48.79-23.65,61.62-19.35,12.84,4.3,15.49-.22,30.21-.65,14.72-.43,19.86,3.87,26.28,4.95s12.84-2.15,17.97,2.15c5.14,4.3,14.12,1.07,20.54,3.22,6.42,2.15,20.54,15.05,21.83,23.65,1.28,8.6,2.57,7.52-14.12,11.82-16.69,4.3-34.66,22.57-41.08,24.72-6.42,2.15-15.41,3.22-21.83,3.22-6.42,0-15.41-1.07-15.41-1.07Z"/><path class="cls-18" d="m129.62,969.57s34.93.08,46.49,6.53c11.55,6.45,28.24,7.52,39.8,4.3,11.55-3.22,17.1-.78,36.79,1.76,19.69,2.54,36.17-8.68,46.55-6.29,10.38,2.38,11.31,8.85,8.28,10.99-3.03,2.14-20.97,6.75-25.48,9.82-4.51,3.07-23.58,21.34-34.59,23.49-11.01,2.15-28.98,0-34.12,1.07-5.14,1.07-23.11-2.15-30.81-5.37-7.7-3.22-41.08-34.4-44.93-35.47-3.85-1.07-9.52-10.9-7.97-10.83Z"/><path class="cls-33" d="m178.18,977.17s11.14,13.03,17.37,18.34c6.23,5.31,17.78,25.73,17.78,25.73"/><path class="cls-33" d="m230.02,1020.17s23.11-22.57,33.38-26.87c10.27-4.3,42.29-5.1,42.29-5.1"/><line class="cls-33" x1="246.27" y1="1005.41" x2="250.14" y2="981.81"/><line class="cls-33" x1="273.11" y1="990.88" x2="283.14" y2="978.03"/><path class="cls-33" d="m192.05,992.26s-41.63-17.24-44.2-18.32c-2.57-1.07-5.61-3.96-5.61-3.96"/></g></svg>